<svg width="32" height="32" viewBox="0 0 32 32" fill="none" xmlns="http://www.w3.org/2000/svg">
<path d="M27.044 13.8079H15.9414V18.4092H22.3307C21.736 21.3332 19.2467 23.0132 15.9414 23.0132C15.0165 23.0148 14.1004 22.8338 13.2456 22.4805C12.3908 22.1273 11.6142 21.6087 10.9603 20.9547C10.3063 20.3006 9.78796 19.5239 9.43487 18.6691C9.08178 17.8142 8.90093 16.8981 8.90268 15.9732C8.9011 15.0484 9.08209 14.1325 9.43525 13.2778C9.78842 12.4231 10.3068 11.6465 10.9607 10.9926C11.6147 10.3387 12.3912 9.82028 13.2459 9.46712C14.1006 9.11395 15.0166 8.93297 15.9414 8.93455C17.62 8.93455 19.1374 9.53055 20.328 10.5052L23.7947 7.03988C21.6827 5.19855 18.9747 4.06255 15.9414 4.06255C14.3758 4.05797 12.8247 4.36296 11.3774 4.95998C9.93012 5.55699 8.61513 6.43425 7.50809 7.54129C6.40105 8.64833 5.52379 9.96332 4.92678 11.4106C4.32976 12.8579 4.02478 14.409 4.02935 15.9745C4.0246 17.5402 4.32947 19.0913 4.92642 20.5387C5.52337 21.9861 6.40062 23.3011 7.5077 24.4082C8.61478 25.5153 9.92983 26.3925 11.3772 26.9895C12.8246 27.5864 14.3757 27.8913 15.9414 27.8865C21.8974 27.8865 27.3134 23.5545 27.3134 15.9745C27.3134 15.2705 27.2054 14.5119 27.044 13.8079Z" fill="black"/>
</svg>
