<svg width="32" height="32" viewBox="0 0 32 32" fill="none" xmlns="http://www.w3.org/2000/svg">
<path d="M17.334 9.3335H14.6673V14.6668H9.33398V17.3335H14.6673V22.6668H17.334V17.3335H22.6673V14.6668H17.334V9.3335Z" fill="black"/>
<path d="M16.0003 2.6665C8.64833 2.6665 2.66699 8.64784 2.66699 15.9998C2.66699 23.3518 8.64833 29.3332 16.0003 29.3332C23.3523 29.3332 29.3337 23.3518 29.3337 15.9998C29.3337 8.64784 23.3523 2.6665 16.0003 2.6665ZM16.0003 26.6665C10.119 26.6665 5.33366 21.8812 5.33366 15.9998C5.33366 10.1185 10.119 5.33317 16.0003 5.33317C21.8817 5.33317 26.667 10.1185 26.667 15.9998C26.667 21.8812 21.8817 26.6665 16.0003 26.6665Z" fill="black"/>
</svg>
