<svg width="32" height="32" viewBox="0 0 32 32" fill="none" xmlns="http://www.w3.org/2000/svg">
<path d="M13.3327 23.9998C15.6993 23.9994 17.9978 23.2071 19.862 21.7492L25.7233 27.6105L27.6087 25.7252L21.7474 19.8638C23.206 17.9994 23.9988 15.7004 23.9993 13.3332C23.9993 7.45184 19.214 2.6665 13.3327 2.6665C7.45135 2.6665 2.66602 7.45184 2.66602 13.3332C2.66602 19.2145 7.45135 23.9998 13.3327 23.9998ZM13.3327 5.33317C17.7447 5.33317 21.3327 8.92117 21.3327 13.3332C21.3327 17.7452 17.7447 21.3332 13.3327 21.3332C8.92068 21.3332 5.33268 17.7452 5.33268 13.3332C5.33268 8.92117 8.92068 5.33317 13.3327 5.33317Z" fill="black"/>
</svg>
