<svg width="32" height="32" viewBox="0 0 32 32" fill="none" xmlns="http://www.w3.org/2000/svg">
<path d="M28.7723 9.1401C28.959 8.5201 28.7723 8.06543 27.8897 8.06543H24.9657C24.2217 8.06543 23.8817 8.45876 23.695 8.89076C23.695 8.89076 22.2083 12.5161 20.1017 14.8668C19.4217 15.5508 19.111 15.7668 18.7403 15.7668C18.555 15.7668 18.2857 15.5508 18.2857 14.9308V9.1401C18.2857 8.3961 18.071 8.06543 17.451 8.06543H12.8563C12.3923 8.06543 12.1123 8.40943 12.1123 8.73743C12.1123 9.44143 13.1657 9.6041 13.2737 11.5881V15.8921C13.2737 16.8348 13.1043 17.0068 12.731 17.0068C11.7403 17.0068 9.32966 13.3681 7.89899 9.20276C7.62033 8.39343 7.33899 8.06676 6.59233 8.06676H3.66966C2.83366 8.06676 2.66699 8.4601 2.66699 8.8921C2.66699 9.6681 3.65766 13.5081 7.28166 18.5868C9.69766 22.0548 13.099 23.9348 16.1977 23.9348C18.055 23.9348 18.2843 23.5174 18.2843 22.7974V20.1761C18.2843 19.3414 18.4617 19.1734 19.0497 19.1734C19.4817 19.1734 20.2257 19.3921 21.9603 21.0628C23.9417 23.0441 24.2697 23.9334 25.383 23.9334H28.3057C29.1403 23.9334 29.5577 23.5161 29.3177 22.6921C29.055 21.8721 28.1083 20.6788 26.8523 19.2668C26.1697 18.4614 25.1497 17.5948 24.839 17.1614C24.4057 16.6028 24.531 16.3561 24.839 15.8601C24.8403 15.8614 28.4017 10.8454 28.7723 9.1401Z" fill="black"/>
</svg>
