<?xml version="1.0" encoding="utf-8"?>
<!-- Generator: Adobe Illustrator 24.3.0, SVG Export Plug-In . SVG Version: 6.00 Build 0)  -->
<svg version="1.1" xmlns="http://www.w3.org/2000/svg" xmlns:xlink="http://www.w3.org/1999/xlink" x="0px" y="0px"
	 viewBox="0 0 1080 545.4" style="enable-background:new 0 0 1080 545.4;" xml:space="preserve">
<style type="text/css">
	.st0{enable-background:new    ;}
	.st1{fill:none;stroke:#C7727C;stroke-width:7;stroke-miterlimit:10;}
	.st2{fill:#89171A;}
	.st3{fill-rule:evenodd;clip-rule:evenodd;fill:#89171A;}
</style>
<g id="Background_xA0_Изображение_1_">
</g>
<g id="Shape_1_copy_5_1_" class="st0">
	<g id="Shape_1_copy_5">
		<g>
			<path class="st1" d="M457.1,189.1c7.7-34.2,41.9-29.3,57.8-25c4.1,1.1,8.1-2,8.1-6.2v0c0-1.6-0.6-3.2-1.7-4.4
				c-11-12-73.2-78.3-109.6-81.1c-34.8-1.2-54.9,20.4-61.4,28.2c-1.5,1.8-1.9,4.1-1.1,6.3c7.3,20.6,46.8,128.4,87.9,236.6
				c0.1,0.2,0.2,0.5,0.2,0.7c17.4,69,40,106.7,53.8,129.5c2.8,4.7,9.9,3.9,11.7-1.3c20.1-58.9,22.1-124.1,18-149.5
				c0-0.2-0.1-0.5-0.2-0.7c-12-44.5-71.6-79.6-63.6-132.6C457,189.5,457.1,189.3,457.1,189.1z"/>
		</g>
	</g>
	<g id="Shape_1_copy_5_3_">
		<g>
			<path class="st1" d="M767.1,102.3c-4.7-9.1-19.5-34.5-53.8-40.9c-36.1-5.2-111.2,45.9-124.6,55.3c-1.3,0.9-2.3,2.3-2.6,3.9
				c-0.9,4.1,2.3,8.1,6.6,7.9c16.4-0.8,50.9,1.8,51,36.9c0,0.2,0,0.4,0,0.6c-3.8,53.5-69.5,74.7-91,115.6c-0.1,0.2-0.2,0.4-0.3,0.7
				c-9.6,23.9-21.8,87.9-15,149.8c0.6,5.5,7.3,7.8,11.1,3.8c18.5-19.3,48.7-51.1,80.7-114.7c0.1-0.2,0.2-0.4,0.4-0.6
				c63.6-96.7,125.7-193.3,137.3-211.8C768,106.7,768.1,104.3,767.1,102.3z"/>
		</g>
	</g>
</g>
<g id="Shape_1_copy_6_1_" class="st0">
</g>
<g id="Asay_Jurek">
	<g>
		<path class="st2" d="M245.9,334.4c5.3-2.4,8.8-4,10.6-4.8c1.8-0.8,3.4-1.5,4.9-2c1.5-0.5,3.5-1.1,6.2-2c2.7-0.8,7.4-2.5,14.1-5
			c2.3-0.9,4.1-1.6,5.6-1.9c1.4-0.3,2.2,0.1,2.3,1.1c0.1,1.1-0.4,2-1.5,2.8c-1.1,0.8-2.3,1.5-3.5,2.2c-3.2,2.5-6.2,4.6-8.9,6.4
			c-2.7,1.8-5.6,3.5-8.5,5.2c-2.9,1.7-6.1,3.5-9.5,5.5c-3.4,2-7.5,4.4-12.1,7.3c0.1,13.2,0,25.8-0.3,37.7
			c-0.3,11.9-0.7,24.4-1.1,37.5c-0.7,2.3-1.5,3.4-2.4,3.4c-0.9,0-1.7-0.5-2.4-1.5c-0.8-1-1.5-2-2.2-3.1c-0.7-1.1-1.3-1.6-1.8-1.4
			c-1.3-4.3-2.1-8.5-2.3-12.8c-0.2-4.3-0.4-8.4-0.7-12.5c-0.6-7-0.9-13.8-0.9-20.3c0-6.5,0-12.9,0.1-19.3
			c-10.2,5.2-20.3,10.9-30,16.9c-9.8,6.1-19.4,12.1-28.9,18.1c-1.1,0.8-2.9,1.9-5.4,3.4c-2.5,1.5-4.1,2.7-4.9,3.5
			c-0.5,0.5-1.4,1.3-2.6,2.5c-1.2,1.2-2.1,2.3-2.7,3.3c-3.2,7.3-6,14.5-8.1,21.8c-2.2,7.2-4.7,14.6-7.5,22.1
			c-3.1,7.9-5.8,15.5-8.2,22.9c-2.4,7.4-4.2,15.3-5.4,23.8c-0.3,1.5-0.5,3-0.6,4.6c-0.2,1.6-0.6,3-1.2,4.3c-0.7,1.3-1.6,2.5-2.8,3.5
			c-1.2,1.1-2.9,1.9-4.9,2.4c-3.1,1-6,0.8-8.8-0.7c-2.8-1.5-4.8-3.1-6.2-5c-0.6-1-0.8-1.8-0.7-2.7c0.1-0.8,0.4-1.7,0.8-2.5
			c0.4-0.8,1-1.6,1.6-2.4c0.6-0.7,1.1-1.4,1.5-2c1.2-2.6,2.3-5.2,3.4-8c1.1-2.8,2.1-5.6,3-8.4c3.4-11,7.1-22,11.1-33
			c4-11,8-22,12.1-33.1c-2.4,1.6-4.4,2.8-5.8,3.5c-1.4,0.7-2.7,1.3-3.8,1.8c-1.1,0.5-2.3,1-3.5,1.5c-1.2,0.5-2.9,1.4-5.1,2.6
			c-1.3,0.8-2.5,1.7-3.6,2.6c-1.1,0.9-2.4,1.5-3.8,1.9c-5,2.2-9.2,4.3-12.6,6.2c-3.4,2-7.1,4.1-10.9,6.2c-1.9,1.2-3.1,1.5-3.7,1.2
			c-0.6-0.4-0.7-1.2-0.3-2.3c0.4-1.2,1.3-2.6,2.5-4.2c1.2-1.6,2.9-3.2,4.8-4.7c3.6-2.8,7.5-5.3,11.5-7.7c4-2.4,7.9-4.8,11.6-7.3
			c4.9-3.6,10-7.1,15.2-10.4c5.2-3.3,10.4-6.5,15.7-9.6c5.1-12.1,10.4-24.2,15.8-36.4c5.4-12.1,11.1-24.2,17.1-36.1
			c6-12,12.4-23.7,19.1-35.2c6.7-11.5,14.1-22.7,22.1-33.6c2.2-3.2,5-6.5,8.4-10c3.4-3.5,7.4-6.1,11.8-7.8c2-0.7,3.8-0.8,5.4-0.4
			c1.6,0.4,3,1.2,4.3,2.3c0.4,0.2,0.6,0.5,0.7,0.8c0.1,0.3,0.3,0.6,0.8,1c1,1,1.7,1.6,2.3,1.9c0.6,0.2,1,1.4,1.2,3.4
			c0.2,1.9,0.2,3.8,0.1,5.8c-0.1,2-0.3,4-0.4,6c-0.2,6.8-0.6,13.4-1.2,20c-0.6,6.6-1.3,13.2-2.1,19.7c-0.7,6.6-1.5,13.1-2.2,19.7
			C246.9,321.1,246.3,327.7,245.9,334.4z M234.5,298.2c0.9-7.1,1.6-14.6,1.9-22.6c0.4-7.9,0.6-15.7,0.7-23.2l-0.2,0.1
			c-0.5,0.1-0.7,0.3-0.6,0.6c-3.1,4.7-6.4,9.6-9.9,14.7c-3.5,5.1-7,10.3-10.4,15.6c-3.5,5.3-6.8,10.6-10.1,15.9
			c-3.3,5.3-6.3,10.4-9,15.3c-5.3,9.8-10.5,19.6-15.6,29.6c-5.1,10-9.4,20.5-12.8,31.5c9.4-5.8,19.7-11.7,31-17.7
			c11.2-6,22.1-11.5,32.8-16.7c0.3-7.4,0.6-14.7,0.7-21.8C233,312.5,233.5,305.4,234.5,298.2z"/>
		<path class="st2" d="M354.1,318.6c0.3-0.1,0.7-0.2,1.2-0.4c0.5-0.2,1-0.5,1.5-1l1.4-0.4l0.6-0.4l2.4-0.7c2.9,0.8,4.2,1.8,3.8,3.1
			c-0.4,1.3-1.4,2.4-3.1,3.1c-1.4,1.2-3.2,2.6-5.6,4.2c-2.4,1.6-4.7,3.2-7.1,4.7c-2.4,1.5-4.5,2.9-6.4,4c-1.9,1.2-3,1.8-3.3,1.9
			c-0.2,0-0.3,0.1-0.3,0.2c-0.1,0.1-0.2,0.2-0.6,0.3c-0.3,0.2-0.5,0.4-0.6,0.4c-1.1,4.8-2,8.1-2.7,10c-0.8,1.9-1.5,3.4-2.2,4.6
			l-1.1,1.5c-2.8,3.8-5.3,7.1-7.5,9.7c-2.1,2.7-4,4.9-5.6,6.8c-1.6,1.9-3,3.4-4.2,4.6c-1.2,1.2-2.3,2.2-3.3,2.9l-0.1-0.2
			c-2.7,2.5-5.2,4.4-7.5,5.7c-2.3,1.3-4,2.1-5.3,2.4c-3.1,0.9-5.5,0.8-7-0.1c-1.5-0.9-2.6-2.4-3.1-4.3c-0.8-2.8-0.2-6,1.8-9.6
			c2-3.6,4.5-7.2,7.7-10.8c3.2-3.6,6.7-7,10.5-10.2c3.9-3.2,7.2-6,10.2-8.3c2.9-2.3,5-4,6.3-5.1c1.3-1.1,1.1-1.1-0.7-0.2l-1,0
			c-2,0.6-4.8,1.4-8.2,2.6c-3.4,1.2-6.6,2.6-9.5,4.2c-1.5,0.7-2.9,1.4-4.3,2c-1.4,0.6-3.2,1.1-5.5,1.4l0.2-0.1c-0.2,0-0.3,0-0.4,0
			c-0.1-0.1-0.2-0.1-0.4,0c-0.3,0.1-0.8,0.1-1.4,0c-0.6-0.1-1-0.2-1.2-0.3l0.2-0.1c-1.5-0.7-2.7-1.5-3.5-2.4
			c-0.8-0.9-1.3-1.8-1.5-2.7c-0.2-0.9-0.3-1.7-0.1-2.5c0.2-0.8,0.4-1.4,0.6-2c0.5-1.4,1.2-2.9,2.3-4.5c1.1-1.6,2.4-3.7,3.8-6.3
			l0.5-0.9c1.6-1.7,3.2-3.6,4.8-5.6c1.6-2,3.4-4,5.2-5.9c1.9-1.9,3.8-3.6,5.8-5.2c2-1.6,4.1-2.8,6.3-3.5l1.5-0.9
			c0.9-0.3,2-0.4,3.2-0.3c1.2,0.1,2.2,0.1,3.1,0.2c1.2,1.1,1.7,2.1,1.7,2.9c0,0.8-0.3,1.4-0.9,1.9l-2.2,2.1l-0.4,0.4
			c-0.3,0.6-1,1.1-1.8,1.7c0.2-0.4,0-0.2-0.7,0.6c-0.7,0.8-1.4,1.4-2.1,1.9c-0.9,1.5-2.4,2.9-4.5,4.1c-2,1.2-3.6,2.4-4.8,3.7l-2,2
			l-2.8,3.7l-1.7,2.1c-1.7,1.8-3.1,3.7-4.2,6c2.4-1,4.6-2,6.5-3c2.1-0.9,4.5-1.8,7.2-2.8c2.7-1,5.4-1.8,8.1-2.4
			c1.5-0.2,3.1-0.5,4.9-0.6c1.8-0.2,3.4-0.1,4.9,0.3l-0.2,0.1c2,0.4,3,0.7,3.1,0.8c0.1,0.1,0.3,0.2,0.4,0.1l0.4,0.4
			c0.1-0.2,0.3-0.3,0.4-0.4c0.2,0,0.3-0.1,0.6-0.3c0.2-0.1,0.4-0.2,0.6-0.3l1.1-0.8l15.5-9.3C352.8,319.2,353.4,319,354.1,318.6z
			 M306,363.6c-0.2,0.4-1,1.5-2.2,3.2c-1.2,1.8-2,3-2.3,3.7c-1.1,1.1-1.9,2.2-2.5,3.3c-0.6,1.1-1,2-1.2,2.5c-0.3,0.9,0.1,1.1,1,0.8
			c0.9-0.3,2-1,3.3-1.9c1.3-0.9,2.6-1.9,3.9-3c1.3-1.1,2.2-1.8,2.6-2.3l-0.2,0.1l5-4.7c3.7-4.2,6.4-7.7,8.1-10.3
			c1.7-2.6,3-5.3,4.1-8.2l-2.6,1.7c-4.1,3.4-7.2,5.9-9.1,7.4c-1.9,1.6-3.5,2.9-4.7,4.1l-2.5,3.1L306,363.6z"/>
		<path class="st2" d="M426.5,304.4c4.1-2.9,6.7-4.1,7.7-3.7c1,0.4,0.9,1.6-0.5,3.4c-0.3,0.6-0.9,1-1.5,1.4
			c-0.7,0.3-1.1,1.2-1.2,2.5c-1.8,2.6-3.1,4.3-3.9,5c-0.8,0.8-1.4,1.1-1.7,1.1c-2.2,1.7-4.2,3.7-5.7,5.9c-1.6,2.2-3.3,4.3-5,6.2
			c-1.8,1.9-3.8,3.6-6,5c-2.2,1.4-5.1,2.2-8.6,2.4c-0.3,0.1-0.7,0.1-1.2,0c-0.5-0.1-0.9-0.2-1.5-0.2c-1.6-0.2-2.8-0.6-3.5-1.3
			c-0.8-0.7-1.5-1.5-2.3-2.4c-0.6-1.1-1.2-2.5-1.8-4.2c-0.6-1.7-0.9-3.5-1.1-5.3c-0.4-0.1-0.5,0-0.6,0.3c0,0.2-0.1,0.4-0.3,0.4
			c-0.3,0.2-0.5,0.5-0.8,0.8c-0.3,0.3-0.6,0.7-1,1.1c-0.5,1.1-1.1,2.1-1.6,3.1c-0.5,0.9-1.2,1.8-2.2,2.5c-0.2,0.7-0.5,1.2-0.9,1.7
			c-0.5,0.5-0.8,0.9-1.1,1.2c-0.2,0-0.2,0.2,0,0.4c0.1,0.2,0.1,0.3,0,0.4c-0.3,0.2-0.7,0.6-1.3,0.9c-0.6,0.4-1,0.9-1.1,1.4
			c-3,3.4-6.3,6.4-9.9,9.2c-0.9,1-1.9,2-2.9,2.8c-1,0.8-2.1,1.3-3.3,1.5c-0.8,0.2-1.5,0.4-2,0.6c-0.6,0.2-1.3,0.2-2.1,0.1
			c-1.3,0.2-2.6,0.4-3.9,0.7c-1.3,0.3-2.4,0.1-3.5-0.6c-2-0.6-3-2.4-3-5.4c0-0.1,0-0.2,0.2-0.3c0.2,0,0.2-0.2,0.1-0.5
			c-0.3-1.7-0.2-3.3,0.3-5c0.5-1.6,1-3.2,1.6-4.6c0.7-2.4,1.6-4.7,2.7-7c1.1-2.2,2.1-4.5,3-6.8c1-1.4,2.5-3.6,4.5-6.8
			c2-3.1,4.2-6.3,6.5-9.6c2.3-3.3,4.5-6.2,6.5-8.7c2-2.5,3.5-4,4.4-4.4c1.5-1.2,2.6-2.5,3.4-3.9c0.7-1.4,2.1-2.7,4.1-3.9
			c0.2,0,0.2-0.1,0.2-0.2c0-0.1,0-0.1,0.2-0.2c0.3-0.1,0.7-0.1,1.1-0.2c0.4,0,0.7-0.2,1-0.6c1.1,0.2,2.2,0.1,3.5-0.2
			c0.8,0.6,1.7,1.1,2.7,1.5c1,0.5,1.6,1.1,1.8,2c0.6,0.3,0.8,0.9,0.7,1.7c-0.1,0.8-0.4,1.5-1,2c-0.3,0.6-0.9,0.9-1.5,1
			c-0.7,0.1-1.3,0.4-1.8,0.9c-1.4,1-2.7,2.3-3.8,3.9l-2.3,2.6l-0.4,0.6c-0.5,0.1-1,0.4-1.4,0.8c-0.5,0.4-0.8,1.1-0.8,2
			c-1.2,0.6-2.3,1.6-3.3,2.7c-1,1.2-2.1,2.3-3.1,3.4c-0.6,1-1.1,1.8-1.6,2.5c-0.5,0.7-1,1.4-1.7,2.3c-1,1.4-2,2.9-3.1,4.4
			c-1.1,1.6-2.1,3.1-3,4.7c-0.6,0.8-1.2,1.7-1.7,2.7c-0.5,1-1.2,1.9-2.2,2.6c0.2,0.6,0,1.2-0.5,1.8l0.1,0.2l0.1,0.2
			c-0.8,0.7-1.4,1.5-1.7,2.5c-0.3,1-0.7,1.9-1.1,2.8c0,1.4-0.2,2.8-0.9,4.1c-0.7,1.3-0.9,2.6-0.7,3.8c1.4-0.9,2.5-1.9,3.2-3
			c4.5-4.4,8.8-9,12.7-13.7c4-4.7,8-9.6,12.2-14.8c1.1-1.6,2.2-2.9,3.3-4c1.1-1.1,2.1-2.7,2.9-4.6l0.7-0.2l-0.1-0.2
			c0-0.5,0.2-0.9,0.4-1.3c0.2-0.4,0.3-0.9,0.3-1.5c0.1-0.3,0.1-0.7-0.1-1.2c-0.1-0.4-0.1-0.9,0.2-1.2c0.4-0.3,1-0.5,1.6-0.7
			c0.6-0.2,1.1-0.3,1.4-0.4l3.1-0.8c0.7,0.1,1.7,0.3,2.9,0.4c1.2,0.1,2.1,1,2.5,2.7c-0.1,1.5-0.4,2.9-1,4.3
			c-0.5,1.4-1.1,2.9-1.7,4.5c0.1,1.4-0.2,2.8-0.7,4l0.3,1.1c-0.5,0.5-0.8,1.3-0.9,2.4c0,0.8,0.1,1.4,0.1,1.9c0,0.5,0,1.2-0.3,2.2
			l-0.1,5.3c0.5,1.9,1.2,2.9,2.1,3c0.9,0.1,1.8-0.3,2.9-1c1.1-0.8,2.2-1.8,3.4-3c1.2-1.2,2.3-2.2,3.3-2.9c2.4-1.6,4.8-3.7,7.2-6.3
			C422.5,308.4,424.6,306.2,426.5,304.4z"/>
		<path class="st2" d="M471,287.3c-0.2,0.5-1.1,1.9-2.6,4c-1.5,2.1-3.3,4.4-5.2,6.8c-2,2.5-3.9,4.8-5.7,7c-1.9,2.2-3.1,3.6-3.8,4.3
			c-0.6,0.8-1.7,1.6-3.3,2.5c-1.6,0.8-3.3,1-5.3,0.6c-4.8,1.2-8.9,0.9-12.4-0.9c-0.7-0.6-1.2-1.6-1.7-2.9c-0.4-1.3-0.7-2.6-0.7-3.9
			c0.1-1,0.2-2,0.3-3.1c0.1-1.1,0.2-2.1,0.3-3.1c0.2-0.4,0.3-0.7,0.2-1c-0.1-0.3-0.1-0.5,0.1-0.7c0.1-0.3,0.2-0.6,0.3-0.8
			c0.1-0.2,0.2-0.5,0.3-0.8c0.2-0.7,0.2-1.3,0.2-1.9c0-0.6,0.2-1.2,0.5-1.9c0.2-1,0.6-2.3,1-3.8c0.4-1.5,0.9-3,1.4-4.6
			c0.5-1.6,1-3.1,1.6-4.5c0.5-1.4,0.9-2.6,1.2-3.5c0.5-1.1,1.5-2.2,3-3.3c1.5-1.1,3.3-1.6,5.3-1.4c1.7,0.2,3.2,0.8,4.5,2
			c1.3,1.2,1.7,2.5,1.3,4.1l-1,1c-0.2,0.5-0.4,1.3-0.6,2.3c-0.2,1-0.5,2.1-0.8,3.1c-0.3,1-0.6,2-0.8,3c-0.2,0.9-0.4,1.5-0.5,1.7
			c0,1.1-0.3,2-0.8,2.7c-0.5,0.7-0.6,1.6-0.3,2.6c-0.5,1.3-0.8,2.5-0.9,3.7c-0.1,1.2-0.3,2.6-0.5,4.1c0.4,0.2,0.8,0.1,1.2-0.2
			c0.4-0.4,0.7-0.7,0.7-1c4.4-4.3,8.4-8.7,11.9-13.4c3.5-4.7,7.1-9.3,10.8-14c0.3-0.2,0.4-0.4,0.3-0.6c0-0.1,0.1-0.4,0.3-0.8
			l1.2-1.1c-0.3-1-0.4-1.9-0.4-2.7c0.1-0.7,0.1-1.5,0.2-2.3c1.4-1.2,3-2,5-2.6c2-0.5,3.9-0.7,5.9-0.4c1.2,0.6,2.1,1.6,2.7,2.9
			c0.6,1.3,1,2.6,1.1,4c0.1,1.4,0.2,2.8,0.1,4.2c0,1.4,0,2.5,0.1,3.5c-0.1,5.6-0.3,10.7-0.5,15.2c-0.2,4.5-0.4,9-0.8,13.4
			c0.8-0.1,1.4-0.3,1.6-0.7c0.2-0.4,0.6-0.9,1.1-1.5c3.6-3.7,6.6-6.9,9.1-9.5c2.5-2.6,4.9-5.1,7.2-7.6c2.3-2.5,4.7-5.1,7.4-7.8
			c2.6-2.7,5.9-6,9.8-9.8c3.9-3.8,7.8-7.5,11.8-11.3c4-3.7,8.5-7.2,13.5-10.3c-0.1,0.3-0.3,0.6-0.7,0.8c-0.4,0.2-0.7,0.5-0.9,0.8
			c0.6,0.2,1.1-0.1,1.7-0.7c0.6-0.6,1.2-0.9,1.9-0.8c0,1.1-0.6,2-1.7,2.5c-1.1,0.5-2.2,1.4-3.3,2.5c-0.3,0.7-0.8,1.4-1.6,2.1
			c-0.7,0.7-1.5,1.3-2.2,1.8l0.3,0.2c-1.2,1.3-2.6,2.6-4.1,3.9c-1.6,1.3-2.6,2.7-3.1,4.1c-0.4,0.3-0.7,0.5-0.8,0.7
			c-0.1,0.2-0.4,0.3-0.7,0.2c-1.6,1.7-3.2,3.5-4.8,5.3c-1.6,1.8-3.2,3.6-4.8,5.3c-1.5,1.9-2.5,3.1-3,3.6c-0.5,0.5-0.8,0.9-1.1,1.2
			c-0.3,0.3-0.6,0.7-1.2,1.3c-0.5,0.5-1.6,1.8-3.3,3.7c-0.4,0.9-0.9,1.4-1.3,1.3c-0.4,0-1.3,1-2.6,3.1c-2.4,2.4-4.3,4.4-5.7,5.9
			c-1.4,1.5-2.8,3.1-4.1,4.6c-1.3,1.5-2.1,2.7-2.4,3.4c-0.3,0.1-1.1,0.9-2.3,2.3c-1.2,1.5-2.5,3.1-3.9,4.9c-1.4,1.8-2.5,3.5-3.5,5.2
			c-1,1.6-1.5,2.7-1.5,3.2c-0.3,0.9-1.3,2.3-3.1,4.3c-1.8,2-3.1,4.2-3.8,6.7c-0.5,3.7-1.2,7.4-2.1,11.4c-0.9,3.9-1.8,7.7-2.9,11.3
			c-1,3.6-2,7-3,10.2c-1,3.2-1.7,5.7-2.2,7.8c-0.1,0.2-0.7,1.6-1.6,4.3c-1,2.7-2.3,6-4,10c-1.7,4-3.6,8.3-5.7,13.1
			c-2.1,4.7-4.2,9.3-6.3,13.7c-2.1,4.4-4.1,8.3-6.2,11.8c-2,3.4-3.7,5.9-5,7.4c-1.9,1.8-3.2,3.3-4.1,4.5c-0.9,1.2-2.1,2.3-3.6,3.4
			c-1.3,1.3-3,2.6-4.9,3.9c-1.9,1.3-3.9,2.3-5.8,3.3c-1.9,0.9-3.8,1.6-5.4,2c-1.7,0.4-2.8,0.3-3.5-0.1c0.2-0.4,0-0.5-0.6-0.3
			c-0.6,0.2-1-0.1-1.3-0.9l-0.9,0.3c-1.4-0.9-2.5-2.5-3.2-4.7c-0.7-2.3-1.2-4.4-1.4-6.4c-0.5-0.7-0.6-2.2-0.2-4.8
			c0.4-2.5,1.1-5.6,2.2-9.2c1-3.6,2.2-7.6,3.6-11.8c1.4-4.2,2.8-8.2,4.3-12c1.5-3.8,2.9-7.2,4.3-10.2c1.4-3,2.5-5.2,3.3-6.5
			c1.2-2.4,3.3-6,6.4-10.9c3.1-4.8,6.3-9.9,9.8-15.1c3.5-5.2,6.9-10.1,10.3-14.6c3.4-4.5,6.1-7.8,8.1-9.8c-0.2,0-0.2,0-0.1-0.1
			c0.1-0.1,0.2-0.2,0.6-0.3c-0.2,0-0.2,0.1-0.2,0.2c0,0.1-0.1,0.1-0.2,0.2c0.1-0.2,0.3-0.3,0.4-0.4l0.2-0.1l8-8.7
			c1.1-5.9,2-11.5,2.8-17C470.6,299.1,471,293.4,471,287.3z M444.8,362.6c-1.4,1.8-3.1,4.6-5.3,8.3c-2.2,3.7-4.5,8-6.9,12.8
			c-2.4,4.8-4.8,9.9-7.1,15.3c-2.3,5.4-4.3,10.5-6,15.3c-1.6,4.8-2.7,9.2-3.3,13c-0.6,3.8-0.3,6.6,0.9,8.4c0.3,1,0.7,1.6,1.3,1.8
			c1.1-0.2,2-0.5,2.7-1c0.6-0.5,1.3-1.1,1.9-1.7c1.2-0.6,2-1.3,2.3-2.1c0.4-0.7,1.2-1.5,2.3-2.3c0.9-1.7,1.8-3.3,2.7-4.9
			c0.9-1.6,1.8-3.3,2.7-4.9c1-1.7,2.1-3.6,3-5.6c1-2,1.9-4,2.7-6l4-7.6l4.7-13.5c0.1-0.2,0.2-0.4,0.1-0.5c0-0.2,0.1-0.4,0.3-0.8
			l1.5-3.8c0.3-0.7,1.2-3.1,2.6-7.2c1.4-4.1,2.9-8.5,4.6-13.4c1.6-4.8,3.1-9.5,4.4-14c1.3-4.5,2-7.7,2.2-9.5L444.8,362.6z"/>
		<path class="st2" d="M713.4,201.5c0.1,0.3-0.2,0.6-0.8,0.9c-0.6,0.3-1.1,0.7-1.5,1.1c0.8-0.1,1.5-0.3,2.1-0.8
			c0.5-0.5,1.2-0.7,1.8-0.7c0.1,0.3-0.1,0.5-0.5,0.5c-0.4,0-0.7,0.2-0.7,0.6c0,0.1,0.2,0.2,0.5,0.1c-2,1.4-4.3,2.7-6.9,3.9
			c-2.6,1.3-4.8,2.7-6.6,4.3c0.2,0,0.2-0.1,0.2-0.2c0-0.1,0.1-0.2,0.4-0.2c0.4,0.1,0.3,0.2-0.3,0.4c-0.5,0.2-1,0.6-1.4,1
			c-1.2,0.6-2.3,1.3-3.3,1.9c-1,0.6-2.1,1.2-3.3,1.9c-0.3,0.2-0.4,0.5-0.4,0.7c0,0.2-0.2,0.5-0.4,0.7c-4.8,2.8-8.5,4.9-10.9,6.5
			c-2.5,1.6-4.6,3-6.4,4.4c-1.8,1.4-3.8,3-5.9,5c-2.1,1.9-5.3,4.7-9.5,8.3c-2,1.8-4.1,3.6-6.2,5.3c-2.1,1.7-4.1,3.4-5.9,5.2
			c-0.7,0.7-1.4,1.3-2.3,1.9c-0.8,0.6-1.3,1.3-1.5,2c-0.5,0.8-0.8,2-0.9,3.7c-0.1,1.7-0.4,3.1-0.8,4.2c-2.4,13.3-5.1,26.3-8,39.1
			c-5.6,22.6-14.4,43.9-26.4,63.6c-0.7,1-1.5,2.1-2.2,3.2c-0.7,1.2-1.4,2.2-2.2,3.2l-4.3,4.6c-1.9,2.4-3.9,4.8-6.1,7.2
			c-2.2,2.4-4.6,4.5-7.1,6.5c-1.8,1.5-3.5,2.9-5.2,4.3c-1.6,1.4-3.5,2.8-5.5,4.1l-6.4,3.5c-1.7,1.1-3.5,2.2-5.2,3.1
			s-3.9,1.9-6.4,2.7c-3.1,0.9-5.9,1.3-8.3,1.2c-2.4-0.1-4.8-0.4-7.4-1c-1.7-0.5-3-1.5-4-3c-1-1.5-1.8-3.1-2.5-4.9
			c-0.7-1.8-1.1-3.7-1.3-5.7c-0.2-2-0.3-4-0.4-5.9c0.1-6.3,1-12.2,2.5-17.7c1.5-5.5,3.4-10.8,5.6-15.7c6.5-13.5,14.4-26,23.8-37.7
			c9.4-11.7,19.6-23,30.7-33.9c5.5-5.7,11.2-11.2,17-16.4c5.8-5.3,11.7-10.4,18-15.5c0.8-4.5,1.4-9.8,2-15.9
			c0.5-6.1,1-12.3,1.5-18.7c0.4-6.4,0.8-12.8,1.1-19.1c0.3-6.3,0.4-11.9,0.4-16.9c0.1-2.6,0.1-5.1-0.1-7.7c-0.2-2.5-0.4-5.1-0.6-7.7
			c0.1-0.8,0.1-1.8-0.1-2.8c-0.2-1.1-0.3-2-0.1-2.8c0.3-1.2,1.2-2.4,2.7-3.5c1.5-1.1,3-1.9,4.6-2.3c1.8-0.3,3.7-0.1,5.8,0.7
			c2.1,0.8,3.5,1.9,4.2,3.3c0.7,1.2,0.9,2.3,0.6,3.2c-0.3,0.9-0.5,2-0.6,3.3c-0.5,1.9-0.7,3.8-0.7,5.8c0,2-0.1,4-0.4,6
			c-0.2,4.1-0.5,8.8-0.8,14.2c-0.3,5.4-0.6,11-0.9,16.7c-0.3,5.7-0.6,11.2-1,16.6c-0.4,5.4-0.8,10-1.3,13.8c1.9-1.2,3.6-2.4,5.2-3.8
			c1.6-1.4,3.3-2.7,5.1-4c5.2-4,9.3-7.1,12.4-9.4c3.1-2.3,6-4.3,8.7-6.1c2.7-1.8,5.8-3.7,9.1-5.6c3.4-2,8.1-4.6,14.1-7.8
			c0.7-0.5,1.7-1,2.9-1.5c1.2-0.5,2.4-1.1,3.6-1.7c1.1-0.4,2.3-1,3.6-1.6c1.4-0.6,2.5-1,3.5-1.1c0.9,0.1,1.5,0.2,1.9,0.4
			c0.4,0.2,1,0.4,1.9,0.4c-1.3,0.8-2.6,1.7-3.8,2.5c-1.2,0.8-2.3,1.7-3.2,2.8c0.3-0.1,0.5-0.2,0.6-0.3
			C712.7,201.9,713,201.7,713.4,201.5z M613.1,282.8c-2.4,2.3-4.8,4.5-7.2,6.7c-2.4,2.2-4.7,4.4-6.9,6.8c-2.2,2.4-4.4,4.8-6.4,7.2
			c-2.1,2.4-4.2,4.9-6.4,7.4c-2.2,2.4-4.3,4.7-6.3,7.1c-2,2.4-3.9,4.9-5.9,7.5c-5.7,7.6-11,15.4-15.9,23.3
			c-4.9,7.9-8.7,16.5-11.2,25.9c-1,3.2-1.6,6.5-1.9,10c-0.3,3.5-0.1,7.1,0.5,10.8c0.3,1.2,0.7,2.3,1.2,3.4c0.5,1.1,1,1.7,1.5,1.9
			c0.5,0.5,1.2,0.7,2.2,0.6c1-0.1,1.9-0.3,2.7-0.5c2.2-0.5,4.4-1.1,6.5-2c2.1-0.9,4.1-1.9,6-3.1c3.6-2.3,6.6-4.5,9.1-6.7
			c2.4-2.2,5-4.7,7.6-7.5c0.7-1,1.5-1.9,2.3-2.6c0.8-0.7,1.6-1.6,2.3-2.6l4.2-5.2c0.7-1,1.4-1.9,2-2.8c0.6-0.9,1.2-1.8,1.8-2.8
			c0.8-1.3,1.6-2.6,2.4-3.9c0.8-1.2,1.3-2.6,1.8-4.2c2.1-3.3,4-6.7,5.6-10.1c1.6-3.4,3.3-6.9,5-10.4c1.1-2.7,2.1-5.4,3-8.1
			c0.9-2.7,1.6-5.4,2.2-8.2c0.4-0.9,0.8-1.8,1.2-2.7c0.3-0.9,0.6-1.8,0.7-2.6c1.1-3.8,2.4-7.6,3.7-11.2c1.3-3.6,2.3-7.4,3.1-11.3
			c0.8-4,1.5-8,2.3-12c0.8-4,1.5-7.9,2.1-11.7c0.1-0.2,0.1-0.3-0.1-0.2c-2.5,2.1-4.9,4.3-7.3,6.7C618.1,278,615.6,280.4,613.1,282.8
			z M710.3,119.9c0,0.6-0.1,1.1-0.4,1.3c-0.3,0.2-0.4,0.8-0.5,1.8c-0.9-0.2-1.6,0.1-2.2,0.8c-0.5,0.8-1.2,1.4-1.9,2
			c0.2,0.1,0.3,0.2,0.4,0.4c0,0.2,0.2,0.2,0.5,0.1c-1.2,0.5-2.2,0.9-2.9,1.3c-0.7,0.4-1.6,0.8-2.5,1.2c-0.3,0.1-0.4,0.3-0.4,0.6
			l0.1,0.4c-2.1,0.4-4,0.9-5.7,1.5c-1.7,0.6-3.7,1.1-5.9,1.7c-0.2,0-0.3,0.3-0.3,0.7c-0.1,0.4-0.3,0.6-0.6,0.5
			c-4,1.4-8.1,3-12.1,4.8c-4.1,1.8-8.1,3.4-12.1,5c-3.1,1.2-6.1,2.3-9.2,3.5c-3.1,1.2-6,2.3-8.7,3.4c-9.9,4-19.4,8.7-28.4,14.1
			c-9,5.4-17.9,11.1-26.5,17.2c-2.5,1.5-5.2,3.1-8.1,4.8c-2.9,1.7-5.7,3.5-8.4,5.3c-0.9,0.6-1.7,1.3-2.4,2.3c-0.7,1-1.5,1.5-2.4,1.6
			c-2.2,0.8-4.1,0.7-5.7-0.1c-1.7-0.8-2.6-2.8-2.8-5.9c0.2-1,0.6-1.6,1.1-1.9c0.5-0.2,1-0.5,1.4-1c1.3-0.7,2.7-1.6,4-2.7
			c1.3-1.1,2.6-2.1,3.8-3.1c9.1-6.8,18.5-13.2,28.2-19c9.7-5.9,19.7-11.5,30-16.9c9-4.2,17.9-8.4,26.6-12.4
			c8.7-4,17.7-7.5,27.1-10.6c6.5-2.8,13.2-4.8,19.9-6.2c0.9,0.1,1.7,0.1,2.5,0.2c0.8,0,1.4,0.1,2,0.3c0.6,0.3,1,0.8,1.2,1.6
			C709.1,119.1,709.5,119.6,710.3,119.9z"/>
		<path class="st2" d="M698.6,226.1c0.2-1.2,0.3-2,0.5-2.5c0.1-0.5,0.2-1,0.2-1.5c0-0.5,0.1-1,0.2-1.6c0.1-0.6,0.2-1.5,0.4-2.9
			c0.3-1.4,0.6-2.7,0.9-4.1c0.3-1.4,0.7-2.5,1.3-3.5c-0.1-0.3-0.1-0.6-0.1-0.8c0-0.2,0-0.4,0-0.6c0.1-0.3,0.2-0.8,0.4-1.4
			c0.2-0.6,0.2-1.1,0.1-1.6c0.7-0.5,1.1-1.3,1.2-2.4c0.1-1.1,0.5-2,1.1-2.8c-0.2-0.3-0.3-0.5-0.3-0.6c0-0.2,0-0.4-0.1-0.7
			c1.2-1.3,2.4-2.5,3.6-3.6c1.2-1.1,2.6-1.8,4.3-1.9c1.6,0.4,3,1.1,4.2,2.2c0.9,1.4,1.2,2.8,0.9,4.2c-0.3,1.4-0.7,2.6-1.3,3.6
			c-0.3,2-0.6,3.6-0.8,4.9c-0.2,1.3-0.5,2.5-0.6,3.7c-0.2,1.2-0.4,2.4-0.6,3.8c-0.2,1.3-0.5,3.1-1,5.3c-0.3,2-0.7,3.4-1.2,4.3
			c-0.5,0.9-1,2.5-1.3,4.8c0,0.8-0.2,2.1-0.6,3.9c-0.4,1.8-0.7,3.4-0.8,4.8c-0.1,1.4,0.1,2.2,0.7,2.6c0.6,0.3,1.8-0.7,3.8-3
			c4.5-5.1,8.5-10.5,11.9-16.3c3.4-5.8,7-11.8,10.7-17.9c0.4-0.9,0.9-2.1,1.6-3.5c0.6-1.4,1.2-2.9,1.8-4.5c0.6-1.5,1.1-2.9,1.6-4
			c0.4-1.2,0.9-2,1.2-2.4c0.3-0.6,0.9-1.2,1.8-1.8c0.8-0.6,1.7-0.9,2.7-0.7c1,0.1,1.9,0.8,2.8,1.9c0.9,1.1,1.6,3,2,5.8
			c-0.3,2-0.5,3.7-0.8,5.1c-0.2,1.4-0.2,3-0.1,4.7c0,1.1,0,2.7,0.2,4.9c0.2,2.1,0.4,4.2,0.7,6.4c0.3,2.1,0.8,4.1,1.4,5.7
			c0.6,1.7,1.4,2.5,2.2,2.6c2.1,0.2,3.9-0.1,5.5-0.9c1.6-0.8,3-2,4.5-3.5c4.3-3.6,7.2-6.1,9-7.6c1.7-1.5,3.1-2.8,4.3-3.8
			c1.2-1,2.6-2.2,4.4-3.5c1.8-1.3,4.9-3.4,9.5-6.5c-0.1,0.2-0.1,0.6,0.1,1.2c-0.3,0.2-0.2,0.3,0.3,0c0.5-0.2,0.8-0.3,0.9-0.4
			c0,1.3-0.6,2.6-1.7,3.9c-1.2,1.4-2.1,2.5-2.8,3.5c-0.2,0-0.5,0.5-0.9,1.2c-0.5,0.8-0.8,1.2-0.9,1.2l-11.5,11.8
			c-3.1,3.1-5.8,5.9-8.4,8.3c-2.5,2.5-4,3.8-4.5,3.9c-1.1,0.8-2,1.3-2.5,1.6c-0.5,0.3-1.4,0.8-2.5,1.4c-1.2,0.6-2.4,1.1-3.7,1.3
			c-1.3,0.2-2.4,0.3-3.3,0.2c-1.9-0.1-3.4-0.8-4.4-2.1c-1-1.3-1.8-2.8-2.4-4.6c-0.6-1.8-1-3.6-1.1-5.6c-0.2-1.9-0.4-3.6-0.6-5
			c-0.4-0.8-0.6-1.6-0.6-2.2c0-0.6,0-1.4,0.2-2.2c-0.5,0.6-0.9,1.3-1.2,2c-0.3,0.7-0.8,1.3-1.5,1.9c-0.3,0.7-0.6,1.2-1,1.5
			c-0.4,0.3-0.7,0.5-0.9,0.7c-0.3,0.2-0.6,0.6-0.9,1c-0.3,0.4-0.5,1-0.7,1.6c-0.5,0.1-0.7,0.3-0.8,0.5c0,0.2-0.1,0.4-0.2,0.5
			c-0.2,0-0.2,0.4,0,1c-1.3,2-2.6,3.5-3.8,4.5c-1.2,1.1-2.4,2.6-3.5,4.7c-1.2,1.1-2.1,2.4-2.5,3.7c-0.5,1.3-1.2,2.5-2.3,3.6
			c-0.5,1.1-1.4,2.1-2.5,2.9c-0.1,0.3-0.2,0.7-0.5,1.1c-0.2,0.4-0.5,0.6-0.8,0.7c0,1.1-0.5,2-1.3,2.6c-0.8,0.6-1.5,1.5-2.1,2.6
			c-5.7,2.5-10,3.2-12.6,2.1c-2.7-1.2-4.5-3.3-5.3-6.3c-0.8-3-1-6.7-0.6-10.9C697.1,233.9,697.8,229.9,698.6,226.1z"/>
		<path class="st2" d="M836.5,163.1c-0.2,0.5-0.2,0.9,0,1.2c0.2,0.3,0,0.7-0.6,1.1c0.1,0.3-0.1,0.5-0.6,0.6
			c-0.1,0.8-0.6,1.4-1.4,1.8c-0.8,0.4-1.5,1-1.9,2c-2.9,1.8-5.9,3.8-9,6.1c-3.1,2.3-6,4.7-8.8,7.1c-2.8,2.5-5.3,4.9-7.5,7.2
			c-2.2,2.4-3.8,4.6-4.8,6.6c-0.9,1.5-1.9,3.2-3,4.9c-1,1.7-1.9,3.6-2.6,5.5c-0.1,1.3-0.2,2.9-0.3,4.9c-0.1,1.9-0.1,3.8-0.1,5.7
			c0,1.8-0.1,3.5-0.3,5c-0.2,1.5-0.5,2.4-0.9,2.9c-0.2,0.7-0.6,1.7-1.2,3c-0.7,1.3-1.3,2-2,2c-2.1,1.7-4.1,2.1-6.1,1.2
			c-2-0.9-3.1-2.6-3.3-5.1c-0.1-1.6,0-4,0.3-7.3c0.3-3.3,0.4-5.8,0.2-7.5l-0.1-0.2c0-0.5,0-1-0.1-1.4c0.7-2.4,1.1-4.9,1.3-7.3
			c0.2-2.4,0.5-4.9,1.1-7.2c0-0.1,0-0.3,0.3-0.4c0.2-0.1,0.3-0.3,0.3-0.4c0-3.2,0.1-6.4,0.5-9.6c0.4-3.2,0.7-6.3,0.9-9.2
			c0-0.6,0.1-1.1,0.3-1.5c0.2-0.4,0.4-0.8,0.6-1.4c0.7-0.5,1.3-1,1.8-1.4c0.5-0.4,1-0.8,1.6-0.9c0.2-0.4,0.6-0.6,1.1-0.8
			c0.3-0.1,0.7-0.1,1.1-0.2c0.4,0,0.8-0.1,1.1-0.2c1.5-0.2,2.6,0,3.5,0.7c2.5,1.9,3,4.1,1.4,6.8c0.2,1.2,0.2,2.5,0.2,3.8
			c-0.1,1.3-0.1,2.4,0,3.3c4.4-5.4,9.1-9.6,14.1-12.5c4.9-3,9.7-5.2,14.1-6.8c1.2-0.5,2.6-1,4.2-1.7
			C833.5,162.9,835.1,162.8,836.5,163.1z"/>
		<path class="st2" d="M872.7,202.3c-1.1,1.1-2.3,2-3.7,2.8c-1.4,0.8-2.7,1.6-4,2.4c-1.8,1-3.8,2-6,3.1c-2.2,1.1-4.5,1.9-6.9,2.5
			c-2.4,0.6-4.7,0.8-7.1,0.5c-2.3-0.2-4.5-1.1-6.4-2.7c-1.5-1-2.5-2.5-3.2-4.4c-0.7-1.9-1.1-3.9-1.2-6c-0.1-2.1,0-4.3,0.4-6.6
			c0.3-2.2,0.7-4.3,1.2-6.2c0.6-0.8,1-1.7,1.3-2.7c0.2-1,0.3-1.9,0.3-2.5c2.3-4.6,4.7-9.1,7.3-13.5c2.6-4.4,5.5-8.1,8.8-11.1
			c1.4-1.5,3-2.9,4.7-4.2c1.7-1.3,3.2-2.5,4.6-3.7c0.5-0.5,1-0.9,1.3-1.3c0.3-0.4,0.9-0.7,1.6-0.9c5.7-1.6,9.6-1.7,11.9-0.3
			c2.2,1.4,3.6,3,4.1,4.7c0,0.6-0.4,1.5-1.1,2.5c-0.7,1-1.2,1.9-1.5,2.8c-0.6,1-1.1,1.9-1.5,2.7c-0.4,0.8-0.7,1.6-0.9,2.3
			c-4.9,6.9-9.9,13.3-15.1,19c-1.2,1.6-3.1,3-5.6,4.2s-5.1,2-7.8,2.4c-0.7,1.2-1.3,2.6-1.9,4.2c-0.6,1.7-0.9,3.4-1,5.1
			c-0.1,1.7,0.1,3.3,0.6,4.9c0.5,1.5,1.5,2.7,3.1,3.3c3.2-0.6,5.9-1.6,8-3.2c2.1-1.5,4.2-2.9,6.2-4.1c1.6-0.9,3.3-1.9,5-3.1
			c1.7-1.1,3.2-2.2,4.5-3.2c2.9-2.4,5.3-4.3,7.2-5.8c1.9-1.5,3.7-2.8,5.3-4.1c1.7-1.3,3.4-2.6,5.2-4.1c1.8-1.5,4-3.4,6.8-5.9
			c2.2-1.9,4.4-3.8,6.7-5.8c2.3-2,4.4-3.9,6.4-5.7c0.4-0.4,0.5-0.7,0.4-0.7c-0.1-0.1-0.2,0-0.4,0.1c-0.1,0.1-0.2,0.2-0.2,0.3
			c0,0.1,0.3,0,0.9-0.4c0.2,0,0.3-0.2,0.5-0.4c0.2-0.2,0.4-0.3,0.5-0.4c1.4-0.4,2.4-0.5,2.9-0.4c0.5,0.1,0.8,0.4,0.9,1
			c0.1,0.5-0.1,1.2-0.5,2c-0.4,0.8-0.7,1.8-1.1,2.8c0.2,0,0,0.2-0.4,0.7c-0.5,0.5-1,1.1-1.6,1.6c-0.6,0.6-1.4,1.4-2.3,2.4
			c-1.4,1.7-3.2,3.5-5.3,5.5c-2.2,2-4.3,4-6.5,6c-2.2,2-4.2,3.8-6.1,5.4c-1.9,1.6-3.4,2.8-4.3,3.6L872.7,202.3z M849.4,184
			c1.4-0.4,2.7-1.1,3.8-2.3c1.1-1.1,2.2-2.2,3.3-3.3c2.5-3.2,5-6.8,7.5-10.6c2.5-3.8,4.7-7.6,6.6-11.3c0.3-0.1,0.4-0.4,0.3-0.8
			c-5.1,3.5-9.4,7.7-12.7,12.6C854.9,173.3,851.9,178.5,849.4,184z"/>
		<path class="st2" d="M1002.5,148.5c-0.3,0.2-0.2,0.3,0.3,0.2c0.5-0.1,0.8-0.1,1.1,0.2c0.4,0.2,0.5,0.7,0.4,1.3
			c-0.2,0.7-0.1,1.1,0.3,1.1c-1.8,1.3-3.3,2.5-4.5,3.6c-1.1,1.1-2.6,2.3-4.5,3.4c-2.6,1.5-4.8,3-6.4,4.5c-1.6,1.5-3.8,3-6.6,4.6
			c-8.3,4.2-15.3,8.2-21,11.9c-5.7,3.7-10.3,6.2-14,7.4c-3.6,1.2-6.4,0.8-8.3-1.4c-1.9-2.2-3.3-7.1-4.2-14.7
			c-0.4-2.8-0.2-5.3,0.7-7.6c0.9-2.3,1.4-4.8,1.5-7.6c-0.4,0.3-0.9,0.6-1.3,0.8c-0.4,0.3-0.8,0.8-1.1,1.5c-0.3,0.1-0.5,0.2-0.6,0.3
			c-0.1,0.1-0.2,0.2-0.6,0.3c-3.6,6-7.3,11.7-11,17.2c-1,0.6-1.7,1.3-2.1,2.1c-0.4,0.8-1.1,1.6-2.3,2.2c-0.1,0.8-0.4,1.6-0.9,2.4
			c-0.5,0.8-0.9,1.5-1.4,2.3c0.3,1.2,0.2,2.3-0.4,3.2c-0.2,2.8-0.5,5.7-0.7,8.7c-0.2,3-0.6,5.9-1.1,8.8c-2.1,2.3-3.8,3.8-5.1,4.5
			c-1.3,0.7-2.5,1-3.5,0.8c-1-0.1-1.8-0.5-2.3-1.1c-0.6-0.6-1.1-1.1-1.6-1.5c-0.4-0.2-0.5-1.6-0.3-4.2c0.2-2.6,0.5-5.5,0.9-8.8
			c0.4-3.2,0.8-6.3,1.2-9.2c0.4-2.9,0.6-4.8,0.7-5.8l1.7-10.5c0.1-1.5,0.2-2.9,0.4-4.4c0.2-1.5,0.4-3,0.7-4.5c0-0.5,0.3-0.9,0.7-1.2
			c0.1-1,0.1-1.9,0-2.9c-0.1-0.9,0.1-1.8,0.6-2.6c-0.3-0.4-0.3-0.7-0.1-0.9c0.2-0.2,0.4-0.5,0.6-0.9c0.2-3.6,0.6-7.2,1.2-11
			c0.6-3.8,0.8-7.5,0.6-11.3c0.1-0.2,0.2-0.4,0.1-0.5c0.6-1,0.9-2.1,0.9-3.4c0-1.3,0.1-2.4,0.3-3.4l0.9-7.7c0.8-2,1.2-3.9,1.2-5.8
			c0-1.9,0.2-3.8,0.7-5.7c0-1.3,0.1-2.5,0.4-3.6c0.3-1.1,0.4-2.3,0.4-3.6c0.3-1.8,0.7-3.5,1-5c0.4-1.5,0.6-3,0.6-4.6l-0.1-0.2
			c0-0.1,0-0.2,0.2-0.1c0-0.8-0.1-1.4-0.2-2c-0.1-0.5,0-1.2,0.1-1.8c0.1-0.3,0.2-0.8,0.3-1.5c0.2-0.7,0.3-1.5,0.3-2.5l0.6-2.6l0-1
			l0-1.9c-0.1-0.3,0-0.6,0.2-0.8c0.2-0.2,0.3-0.5,0.4-0.8l-0.3-1.1c0-0.6,0.1-1.2,0.4-1.8c0.3-0.6,0.3-1.2,0.1-1.9
			c0.1-0.8,0.2-1.7,0.3-2.6c0.1-0.9,0.2-1.8,0.2-2.8c0.4-1.6,0.5-3.1,0.4-4.7c-0.2-1.5,0-3.1,0.6-4.7c1.2-0.6,2.3-1.5,3.2-2.6
			c1-1.1,2.6-1.6,5-1.6c0.4,0.2,0.8,0.4,1.2,0.5c0.4,0.1,0.8,0.1,1.3,0c1.3,0.3,2.6,0.9,4,1.8c1.4,0.9,2.6,2,3.6,3.3
			c1,1.3,1.6,2.7,2,4.1c0.4,1.4,0.3,2.8-0.4,4.1c-0.2,2.3-0.7,4.4-1.3,6.2c-0.7,1.9-1.1,3.9-1.3,6.2c-0.6,0.8-0.9,1.7-0.8,2.7
			c0.1,1-0.1,2-0.5,2.9c-0.1,1-0.3,1.8-0.6,2.6c-0.3,0.7-0.4,1.6-0.3,2.5c-0.3,0.1-0.5,0.2-0.4,0.4c0,0.2,0,0.2-0.2,0.1
			c0.1,0.4,0.1,0.8,0,1c-0.1,0.2-0.1,0.3,0.1,0.4c-0.5,0.8-0.8,1.7-0.9,2.7c-0.1,1-0.3,1.7-0.6,2.1c-0.3,1.5-0.5,3-0.8,4.4
			c-0.3,1.4-0.6,2.9-1.1,4.5c-0.6,1.5-0.8,2.9-0.6,4.2c-0.2,0.4-0.5,0.8-0.7,1.2c-0.2,0.4-0.3,0.7-0.2,1c-0.2,0.7-0.2,1.3-0.2,1.9
			c0,0.6-0.2,1.1-0.6,1.5c0.1,0.9,0,1.7-0.2,2.3c-0.3,0.6-0.4,1.4-0.5,2.2c-0.2,0.5-0.3,1-0.3,1.5c0,0.5-0.2,1-0.3,1.5
			c-0.2,0.7-0.2,1.3-0.2,2c0,0.6-0.2,1.3-0.7,2.1c0.2,1.5,0.2,3-0.1,4.3c-0.3,1.4-0.7,2.7-1.1,4.2c0.1,0.3,0.1,0.5,0,0.5
			c-0.1,0,0,0.2,0.2,0.4c-0.1,0.3-0.1,0.6-0.2,0.8c0,0.2,0,0.4,0.1,0.7c-0.7,1.2-0.8,2.5-0.4,4.2c-0.8,2.5-1.4,5-1.6,7.5
			c-0.2,2.5-0.8,4.9-1.7,7.1c-0.2,1.8-0.3,3.4-0.4,4.9c-0.1,1.5-0.4,3-0.8,4.5c1.2-1.1,2.4-2.5,3.5-4c1.1-1.5,2.2-2.9,3.2-4.1
			c2.1-3,4.2-5.9,6.5-8.7c2.3-2.9,4.6-5.7,7.1-8.4c1.2-1.1,2.5-2.4,3.9-3.9c1.4-1.5,2.9-2.6,4.5-3.4c0.7-0.5,1.6-0.9,2.6-1.1
			c1-0.2,2-0.3,2.8-0.4c1.1,0.3,2.3,0.8,3.5,1.3c1.2,0.5,2.2,1.4,2.8,2.5c0.7,0.6,1.2,1,1.7,1.1c0.5,0.1,0.8,0.5,1,1.3
			c0.2,0.7,0,1.4-0.6,2.1c-0.6,0.6-1.1,1.2-1.5,1.6c-0.1,0.8-0.5,1.5-1.1,1.9c-0.6,0.4-1.1,1-1.4,1.7c-1.9,1.8-3.3,3.7-4.1,5.7
			c-0.9,2-2.3,3.9-4.1,5.7c-1,1.2-2,2.7-3.1,4.5c-1,1.7-1.9,3.5-2.7,5.4c-0.8,1.9-1.3,3.7-1.7,5.5c-0.4,1.8-0.2,3.4,0.5,4.8
			c0.3,2.2,1.2,3.2,2.8,3.1c1.6-0.1,3.5-0.5,5.7-1.1c3.1-1,6-2.2,8.6-3.4c2.6-1.3,5.3-2.6,8.2-4.1c4.8-2.4,8.7-4.5,11.9-6.2
			c3.2-1.7,5.9-3.2,8.3-4.6c2.3-1.4,4.5-2.5,6.4-3.6C997.8,150.5,1000,149.5,1002.5,148.5z"/>
	</g>
</g>
<g id="Shape_1_1_" class="st0">
	<g id="Shape_1">
		<g>
			<path class="st3" d="M769,139.3c-1.3,0.3-2.3,0.1-3,0c-0.7-0.1,0.3-0.8-1-1c-1.3-0.2,0.6-0.9-1-1c-1.6-0.1-1.1,0.4-2,0
				c-0.9-0.4-2,0-2,0l-8,5c0,0-26.3,17.9-28,19c-1.7,1.1-10,7-10,7s-3,2,1,5c4,3,5.9,2,7,1c8.9-7.2,17.1-11.6,31-20
				c3.4-2.1,12-7,12-7S770.3,139,769,139.3z"/>
		</g>
	</g>
</g>
<g id="Shape_1_copy_1_" class="st0">
	<g id="Shape_1_copy_2_">
		<g>
			<path class="st3" d="M509,217.3c-1.3,0.3-2.3,0.1-3,0c-0.7-0.1,0.3-0.8-1-1c-1.3-0.2,0.6-0.9-1-1c-1.6-0.1-1.1,0.4-2,0
				c-0.9-0.4-2,0-2,0l-8,5c0,0-26.3,17.9-28,19c-1.7,1.1-10,7-10,7s-3,2,1,5c4,3,5.9,2,7,1c8.9-7.2,17.1-11.6,31-20
				c3.4-2.1,12-7,12-7S510.3,217,509,217.3z"/>
		</g>
	</g>
</g>
<g id="selected_second_hand_43_walikhanov_st_1_">
</g>
</svg>
