<svg xmlns="http://www.w3.org/2000/svg" viewBox="0 0 851.57 155.54"><defs><style>.cls-1{fill:#fff;}</style></defs><g id="Слой_2" data-name="Слой 2"><g id="Слой_1-2" data-name="Слой 1"><path class="cls-1" d="M189.08,46.94c-3.77,0-6.89.13-10.53.39v61.1c4.42.26,8.06.26,10.27.26,22,0,34.71-12.48,34.71-31.72C223.53,58.64,210.79,46.94,189.08,46.94Z"/><polygon class="cls-1" points="760.69 85.16 787.34 85.16 774.08 52.79 760.69 85.16"/><polygon class="cls-1" points="63.63 85.16 90.28 85.16 77.02 52.79 63.63 85.16"/><path class="cls-1" d="M822,0H29.62A29.62,29.62,0,0,0,0,29.62v96.31a29.62,29.62,0,0,0,29.62,29.61H822a29.61,29.61,0,0,0,29.61-29.61V29.62A29.62,29.62,0,0,0,822,0ZM105.88,123.38l-9.49-23.27H57.52L48,123.38H31.91L70.39,32.12h14l38.48,91.26Zm82.42.26c-5.46,0-15.6-.26-23.92-.26h-1.82v-91h1.69c5.46,0,18.46-.39,25.09-.39,36.4,0,51.09,20.93,51.09,45C240.43,102.58,223,123.64,188.3,123.64Zm188.5-.26H360.94V57.6L332.21,98h-2.34l-29-40v65.39h-16v-91H301l31.07,42.51,29.64-42.51H376.8Zm69.16,0H430v-91h16Zm130.91,0H564.13l-50-63v63.05h-15v-91h12.74l50,63.31V32.38h15Zm104.39,0L644.08,76.45v46.93h-16v-91h16V75.54L680,32.38H699.2L661.76,74.76l39.78,48.62Zm121.68,0-9.49-23.27H754.58l-9.49,23.27H729l38.49-91.26h14L820,123.38Z"/></g></g></svg>