<svg width="84" height="84" viewBox="0 0 84 84" fill="none" xmlns="http://www.w3.org/2000/svg">
<rect width="84" height="84" rx="42" fill="#CF6B37" fill-opacity="0.38"/>
<rect x="11" y="11" width="62" height="62" rx="31" fill="#CF6B37"/>
<path d="M42.0007 54.3337C47.302 54.3337 52.6673 52.5017 52.6673 49.0003V33.0003C52.6673 29.499 47.302 27.667 42.0007 27.667C36.6993 27.667 31.334 29.499 31.334 33.0003V49.0003C31.334 52.5017 36.6993 54.3337 42.0007 54.3337ZM42.0007 51.667C37.038 51.667 34.0007 49.9403 34.0007 49.0003V47.3097C36.0553 48.427 39.0367 49.0003 42.0007 49.0003C44.9647 49.0003 47.946 48.427 50.0007 47.3097V49.0003C50.0007 49.9403 46.9633 51.667 42.0007 51.667ZM42.0007 30.3337C46.9633 30.3337 50.0007 32.0603 50.0007 33.0003C50.0007 33.9403 46.9633 35.667 42.0007 35.667C37.038 35.667 34.0007 33.9403 34.0007 33.0003C34.0007 32.0603 37.038 30.3337 42.0007 30.3337ZM34.0007 36.643C36.0553 37.7603 39.0367 38.3337 42.0007 38.3337C44.9647 38.3337 47.946 37.7603 50.0007 36.643V38.3337C50.0007 39.2737 46.9633 41.0003 42.0007 41.0003C37.038 41.0003 34.0007 39.2737 34.0007 38.3337V36.643ZM34.0007 41.9763C36.0553 43.0937 39.0367 43.667 42.0007 43.667C44.9647 43.667 47.946 43.0937 50.0007 41.9763V43.667C50.0007 44.607 46.9633 46.3337 42.0007 46.3337C37.038 46.3337 34.0007 44.607 34.0007 43.667V41.9763Z" fill="#F2EABC"/>
</svg>
