<svg width="84" height="84" viewBox="0 0 84 84" fill="none" xmlns="http://www.w3.org/2000/svg">
<rect width="84" height="84" rx="42" fill="#CF6B37" fill-opacity="0.38"/>
<rect x="11" y="11" width="62" height="62" rx="31" fill="#CF6B37"/>
<path d="M39.3327 50.0003C41.6993 49.9998 43.9978 49.2076 45.862 47.7497L51.7233 53.611L53.6087 51.7257L47.7474 45.8643C49.206 43.9999 49.9988 41.7009 49.9993 39.3337C49.9993 33.4523 45.214 28.667 39.3327 28.667C33.4513 28.667 28.666 33.4523 28.666 39.3337C28.666 45.215 33.4513 50.0003 39.3327 50.0003ZM39.3327 31.3337C43.7447 31.3337 47.3327 34.9217 47.3327 39.3337C47.3327 43.7457 43.7447 47.3337 39.3327 47.3337C34.9207 47.3337 31.3327 43.7457 31.3327 39.3337C31.3327 34.9217 34.9207 31.3337 39.3327 31.3337Z" fill="#F2EABC"/>
</svg>
