<svg width="84" height="84" viewBox="0 0 84 84" fill="none" xmlns="http://www.w3.org/2000/svg">
<rect width="84" height="84" rx="42" fill="#CF6B37" fill-opacity="0.38"/>
<rect x="11" y="11" width="62" height="62" rx="31" fill="#CF6B37"/>
<path d="M41.9993 36.667C39.1087 36.667 36.666 39.1097 36.666 42.0003C36.666 44.891 39.1087 47.3337 41.9993 47.3337C44.89 47.3337 47.3327 44.891 47.3327 42.0003C47.3327 39.1097 44.89 36.667 41.9993 36.667ZM41.9993 44.667C40.5793 44.667 39.3327 43.4203 39.3327 42.0003C39.3327 40.5803 40.5793 39.3337 41.9993 39.3337C43.4193 39.3337 44.666 40.5803 44.666 42.0003C44.666 43.4203 43.4193 44.667 41.9993 44.667Z" fill="#F2EABC"/>
<path d="M52.666 32.667H49.218L45.6087 29.0577C45.4851 28.9336 45.3382 28.8352 45.1764 28.7682C45.0146 28.7011 44.8411 28.6667 44.666 28.667H39.3327C39.1576 28.6667 38.9841 28.7011 38.8223 28.7682C38.6605 28.8352 38.5136 28.9336 38.39 29.0577L34.7807 32.667H31.3327C29.862 32.667 28.666 33.863 28.666 35.3337V50.0003C28.666 51.471 29.862 52.667 31.3327 52.667H52.666C54.1367 52.667 55.3327 51.471 55.3327 50.0003V35.3337C55.3327 33.863 54.1367 32.667 52.666 32.667ZM31.3327 50.0003V35.3337H35.3327C35.6873 35.3337 36.026 35.1937 36.2753 34.943L39.8847 31.3337H44.114L47.7233 34.943C47.847 35.067 47.9939 35.1654 48.1557 35.2325C48.3174 35.2995 48.4909 35.3339 48.666 35.3337H52.666L52.6687 50.0003H31.3327Z" fill="#F2EABC"/>
</svg>
