<svg width="84" height="84" viewBox="0 0 84 84" fill="none" xmlns="http://www.w3.org/2000/svg">
<rect width="84" height="84" rx="42" fill="#CF6B37" fill-opacity="0.38"/>
<rect x="11" y="11" width="62" height="62" rx="31" fill="#CF6B37"/>
<path d="M53.4207 31.4071C51.074 30.6378 44.9994 28.6471 44.9994 28.6671C44.9994 29.728 44.5779 30.7454 43.8278 31.4956C43.0776 32.2457 42.0602 32.6671 40.9994 32.6671C39.9385 32.6671 38.9211 32.2457 38.1709 31.4956C37.4208 30.7454 36.9994 29.728 36.9994 28.6671C36.9994 28.6471 30.9247 30.6378 28.5767 31.4071C28.3107 31.4943 28.0792 31.6637 27.9155 31.8908C27.7519 32.118 27.6645 32.3912 27.666 32.6711V37.6258C27.6661 37.8283 27.7123 38.0282 27.8011 38.2102C27.8899 38.3922 28.0191 38.5516 28.1787 38.6763C28.3383 38.8009 28.5242 38.8876 28.7223 38.9297C28.9204 38.9718 29.1255 38.9682 29.322 38.9191L32.9994 38.0005V54.0005C32.9994 54.3541 33.1398 54.6932 33.3899 54.9433C33.6399 55.1933 33.9791 55.3338 34.3327 55.3338H47.666C48.0197 55.3338 48.3588 55.1933 48.6088 54.9433C48.8589 54.6932 48.9994 54.3541 48.9994 54.0005V38.0005L52.6767 38.9191C52.8732 38.9682 53.0783 38.9718 53.2764 38.9297C53.4745 38.8876 53.6604 38.8009 53.8201 38.6763C53.9797 38.5516 54.1088 38.3922 54.1976 38.2102C54.2864 38.0282 54.3326 37.8283 54.3327 37.6258V32.6711C54.3341 32.391 54.2466 32.1177 54.0827 31.8905C53.9188 31.6634 53.687 31.4941 53.4207 31.4071Z" fill="#F2EABC"/>
</svg>
